<svg width="8" height="12" viewBox="0 0 8 12" fill="none" xmlns="http://www.w3.org/2000/svg">
<path d="M3.6392 11.0909V0.181818H4.33807V11.0909H3.6392ZM5.4929 3.78267C5.45881 3.43892 5.3125 3.17187 5.05398 2.98153C4.79545 2.79119 4.4446 2.69602 4.00142 2.69602C3.70028 2.69602 3.44602 2.73864 3.23864 2.82386C3.03125 2.90625 2.87216 3.02131 2.76136 3.16903C2.65341 3.31676 2.59943 3.48438 2.59943 3.67188C2.59375 3.82812 2.62642 3.96449 2.69744 4.08097C2.77131 4.19744 2.87216 4.2983 3 4.38352C3.12784 4.46591 3.27557 4.53835 3.44318 4.60085C3.6108 4.66051 3.78977 4.71165 3.98011 4.75426L4.7642 4.94176C5.14489 5.02699 5.49432 5.14062 5.8125 5.28267C6.13068 5.42472 6.40625 5.59943 6.6392 5.80682C6.87216 6.0142 7.05256 6.25852 7.1804 6.53977C7.31108 6.82102 7.37784 7.14347 7.38068 7.5071C7.37784 8.04119 7.24148 8.50426 6.97159 8.89631C6.70455 9.28551 6.31818 9.58807 5.8125 9.80398C5.30966 10.017 4.70313 10.1236 3.9929 10.1236C3.28835 10.1236 2.67472 10.0156 2.15199 9.79972C1.6321 9.58381 1.22585 9.2642 0.933239 8.84091C0.643466 8.41477 0.491477 7.88778 0.477273 7.25994H2.26278C2.28267 7.55256 2.36648 7.79687 2.5142 7.9929C2.66477 8.18608 2.86506 8.33239 3.11506 8.43182C3.3679 8.52841 3.65341 8.5767 3.97159 8.5767C4.28409 8.5767 4.5554 8.53125 4.78551 8.44034C5.01847 8.34943 5.19886 8.22301 5.3267 8.06108C5.45455 7.89915 5.51847 7.71307 5.51847 7.50284C5.51847 7.30682 5.46023 7.14205 5.34375 7.00852C5.23011 6.875 5.0625 6.76136 4.84091 6.66761C4.62216 6.57386 4.35369 6.48864 4.03551 6.41193L3.08523 6.1733C2.34943 5.99432 1.76847 5.71449 1.34233 5.33381C0.916193 4.95312 0.704545 4.44034 0.707386 3.79545C0.704545 3.26705 0.84517 2.8054 1.12926 2.41051C1.41619 2.01562 1.80966 1.70739 2.30966 1.4858C2.80966 1.2642 3.37784 1.15341 4.0142 1.15341C4.66193 1.15341 5.22727 1.2642 5.71023 1.4858C6.19602 1.70739 6.57386 2.01562 6.84375 2.41051C7.11364 2.8054 7.25284 3.26278 7.26136 3.78267H5.4929Z" fill="white"/>
</svg>
