<svg width="20" height="20" viewBox="0 0 20 20" fill="none" xmlns="http://www.w3.org/2000/svg">
<path d="M11.7801 2.80116L11.2826 2.85091V2.85091L11.7801 2.80116ZM11.7197 2.37987L11.2407 2.52325V2.52325L11.7197 2.37987ZM11.8947 3.55459L11.4304 3.74002L11.4304 3.74002L11.8947 3.55459ZM13.2178 4.10265L13.0206 3.64319V3.64319L13.2178 4.10265ZM13.8316 3.6509L13.5542 3.23488L13.5339 3.24844L13.515 3.26392L13.8316 3.6509ZM13.8316 3.6509L14.1089 4.06692L14.1293 4.05336L14.1482 4.03787L13.8316 3.6509ZM14.1722 3.39575L13.9349 2.95566V2.95566L14.1722 3.39575ZM15.2067 3.44735L15.4867 3.03306L15.4867 3.03306L15.2067 3.44735ZM15.5203 3.73513L15.1667 4.08868V4.08868L15.5203 3.73513ZM16.2648 4.47968L16.6184 4.12613L16.2648 4.47968ZM16.5526 4.79323L16.1383 5.07317L16.1383 5.07317L16.5526 4.79323ZM16.6042 5.82775L16.1641 5.59042L16.1641 5.59043L16.6042 5.82775ZM16.349 6.16838L16.736 6.485V6.485L16.349 6.16838ZM15.8973 6.78216L15.4378 6.58494L15.4378 6.58494L15.8973 6.78216ZM16.4453 8.10527L16.6308 7.64093V7.64093L16.4453 8.10527ZM17.1988 8.21984L17.149 8.71736L17.1988 8.21984ZM17.6201 8.28028L17.4767 8.75928L17.6201 8.28028ZM18.3151 9.04826L18.806 8.95326V8.95325L18.3151 9.04826ZM18.3152 10.9516L17.8243 10.8566V10.8566L18.3152 10.9516ZM17.62 11.7197L17.7634 12.1987V12.1987L17.62 11.7197ZM17.1989 11.7801L17.1491 11.2826L17.1248 11.285L17.1008 11.2898L17.1989 11.7801ZM17.1989 11.7801L17.2486 12.2776L17.273 12.2752L17.2969 12.2704L17.1989 11.7801ZM16.4458 11.8946L16.2604 11.4302L16.2604 11.4302L16.4458 11.8946ZM15.8977 13.2179L15.4382 13.4152L15.4382 13.4152L15.8977 13.2179ZM16.3492 13.8313L15.9622 14.1479L15.9622 14.1479L16.3492 13.8313ZM16.6042 14.1717L16.1641 14.4091V14.4091L16.6042 14.1717ZM16.5526 15.2064L16.1383 14.9264L16.1383 14.9264L16.5526 15.2064ZM15.2068 16.5522L15.4867 16.9665L15.4867 16.9665L15.2068 16.5522ZM14.1722 16.6038L13.9349 17.0439V17.0439L14.1722 16.6038ZM13.8316 16.3487L14.1482 15.9617L14.1293 15.9462L14.109 15.9326L13.8316 16.3487ZM13.8316 16.3486L13.5115 16.7328L13.532 16.7499L13.5543 16.7647L13.8316 16.3486ZM13.8316 16.3486L14.1517 15.9645L14.1482 15.9617L13.8316 16.3486ZM13.2179 15.8969L13.0206 16.3564L13.0206 16.3564L13.2179 15.8969ZM11.8947 16.445L11.4304 16.2595L11.4304 16.2595L11.8947 16.445ZM11.7802 17.1986L12.2777 17.2483V17.2483L11.7802 17.1986ZM11.7197 17.6201L12.1987 17.7636L12.1987 17.7636L11.7197 17.6201ZM10.9518 18.3151L10.8568 17.8242H10.8567L10.9518 18.3151ZM9.04833 18.3151L8.95332 18.806H8.95332L9.04833 18.3151ZM8.28034 17.6201L7.80134 17.7634L8.28034 17.6201ZM8.2199 17.1988L7.72238 17.2485L8.2199 17.1988ZM8.10533 16.4453L8.56967 16.2598L8.56967 16.2598L8.10533 16.4453ZM6.78223 15.8972L6.58502 15.4378L6.58502 15.4378L6.78223 15.8972ZM6.16842 16.349L5.8518 15.962H5.8518L6.16842 16.349ZM5.82776 16.6042L5.59044 16.1641H5.59044L5.82776 16.6042ZM4.79327 16.5526L5.0732 16.1383H5.0732L4.79327 16.5526ZM4.4797 16.2648L4.83325 15.9112L4.82286 15.9008L4.81188 15.8911L4.4797 16.2648ZM4.47969 16.2648L4.12614 16.6183L4.13653 16.6287L4.14751 16.6385L4.47969 16.2648ZM3.73516 15.5203L3.38161 15.8738H3.38161L3.73516 15.5203ZM3.73515 15.5202L3.3816 15.8738L3.3816 15.8738L3.73515 15.5202ZM3.44736 15.2067L3.03307 15.4866L3.03307 15.4866L3.44736 15.2067ZM3.39577 14.1722L2.95568 13.9349L2.95568 13.9349L3.39577 14.1722ZM3.65094 13.8315L3.26396 13.5149H3.26396L3.65094 13.8315ZM4.10271 13.2178L4.56217 13.415L4.56217 13.415L4.10271 13.2178ZM3.55465 11.8946L3.74008 11.4303L3.55465 11.8946ZM2.80121 11.7801L2.75146 12.2776H2.75146L2.80121 11.7801ZM2.37994 11.7196L2.23656 12.1986L2.23656 12.1986L2.37994 11.7196ZM1.6849 10.9516L2.1758 10.8566L1.6849 10.9516ZM1.66669 10.5264H1.16669H1.66669ZM1.66669 9.47358H2.16669H1.66669ZM1.68492 9.04819L2.1758 9.14324L2.1758 9.14324L1.68492 9.04819ZM2.37986 8.2803L2.23644 7.80131H2.23644L2.37986 8.2803ZM2.80132 8.21983L2.75156 7.72231H2.75156L2.80132 8.21983ZM3.55508 8.1052L3.74057 8.56953L3.74057 8.56952L3.55508 8.1052ZM4.10307 6.78224L4.56255 6.58508L4.56255 6.58507L4.10307 6.78224ZM3.65108 6.16814L3.26411 6.48476L3.65108 6.16814ZM3.39575 5.82726L2.95563 6.06453L3.39575 5.82726ZM3.44734 4.79296L3.86166 5.07284L3.86166 5.07284L3.44734 4.79296ZM3.7353 4.4792L4.08885 4.83276L4.09815 4.82346L4.10694 4.81369L3.7353 4.4792ZM3.7353 4.4792L3.38175 4.12565L3.37245 4.13494L3.36365 4.14472L3.7353 4.4792ZM4.47973 3.73477L4.83329 4.08832V4.08832L4.47973 3.73477ZM4.79331 3.44696L5.07323 3.86125L5.07323 3.86125L4.79331 3.44696ZM5.8278 3.39536L6.06511 2.95527H6.06511L5.8278 3.39536ZM6.16852 3.65059L5.8519 4.03757V4.03757L6.16852 3.65059ZM6.78214 4.10227L6.97941 3.64284L6.97941 3.64284L6.78214 4.10227ZM8.10542 3.55415L7.64106 3.36878L7.64106 3.36878L8.10542 3.55415ZM8.21991 2.80105L7.72239 2.7513V2.7513L8.21991 2.80105ZM8.28031 2.37996L8.75933 2.52329V2.52329L8.28031 2.37996ZM9.04842 1.68483L9.14338 2.17573V2.17573L9.04842 1.68483ZM10.9517 1.68484L10.8567 2.17573V2.17573L10.9517 1.68484ZM12.2777 2.75141C12.2579 2.55424 12.2434 2.38569 12.1987 2.2365L11.2407 2.52325C11.251 2.55775 11.2584 2.60883 11.2826 2.85091L12.2777 2.75141ZM12.359 3.36916C12.3559 3.36135 12.3441 3.32542 12.3285 3.21464C12.3133 3.10686 12.2988 2.9631 12.2777 2.75141L11.2826 2.85091C11.3029 3.05417 11.3196 3.22163 11.3382 3.35407C11.3565 3.48352 11.3812 3.61683 11.4304 3.74002L12.359 3.36916ZM13.0206 3.64319C12.7623 3.75408 12.4633 3.63025 12.359 3.36916L11.4304 3.74002C11.7431 4.52329 12.64 4.89479 13.415 4.56211L13.0206 3.64319ZM13.515 3.26392C13.3503 3.39864 13.2384 3.49006 13.1515 3.55554C13.0621 3.62284 13.0283 3.63987 13.0206 3.64319L13.415 4.56211C13.5369 4.50979 13.6487 4.43297 13.7531 4.35433C13.8599 4.27387 13.9901 4.16723 14.1482 4.03788L13.515 3.26392ZM13.5542 3.23487L13.5542 3.23488L14.1089 4.06693L14.1089 4.06692L13.5542 3.23487ZM13.9349 2.95566C13.7978 3.02958 13.6683 3.13845 13.515 3.26392L14.1482 4.03787C14.3365 3.88382 14.3778 3.85293 14.4095 3.83584L13.9349 2.95566ZM15.4867 3.03306C15.0241 2.72051 14.4262 2.69069 13.9349 2.95566L14.4095 3.83584C14.5733 3.74751 14.7726 3.75745 14.9268 3.86164L15.4867 3.03306ZM15.8738 3.38157C15.7337 3.24147 15.6157 3.12025 15.4867 3.03306L14.9268 3.86164C14.9566 3.8818 14.9947 3.91665 15.1667 4.08868L15.8738 3.38157ZM16.6184 4.12613L15.8738 3.38157L15.1667 4.08868L15.9113 4.83324L16.6184 4.12613ZM16.9669 4.5133C16.8797 4.38426 16.7585 4.26624 16.6184 4.12613L15.9113 4.83324C16.0833 5.00527 16.1182 5.04333 16.1383 5.07317L16.9669 4.5133ZM17.0443 6.06507C17.3093 5.57371 17.2794 4.97585 16.9669 4.5133L16.1383 5.07317C16.2425 5.22735 16.2524 5.42664 16.1641 5.59042L17.0443 6.06507ZM16.736 6.485C16.8615 6.33164 16.9704 6.20215 17.0443 6.06507L16.1641 5.59043C16.147 5.62212 16.1161 5.66346 15.9621 5.85176L16.736 6.485ZM16.3567 6.97938C16.3601 6.97164 16.3771 6.93787 16.4444 6.8485C16.5099 6.76155 16.6013 6.64966 16.736 6.485L15.9621 5.85176C15.8327 6.00986 15.7261 6.14005 15.6456 6.24689C15.567 6.35132 15.4901 6.46305 15.4378 6.58494L16.3567 6.97938ZM16.6308 7.64093C16.3697 7.53667 16.2459 7.23772 16.3567 6.97937L15.4378 6.58494C15.1051 7.35997 15.4766 8.25682 16.2599 8.56962L16.6308 7.64093ZM17.2486 7.72232C17.0368 7.70115 16.8931 7.68668 16.7853 7.6715C16.6745 7.6559 16.6386 7.64405 16.6308 7.64093L16.2599 8.56962C16.3831 8.61881 16.5164 8.6435 16.6459 8.66173C16.7783 8.68038 16.9458 8.69703 17.149 8.71736L17.2486 7.72232ZM17.7635 7.80128C17.6143 7.75662 17.4457 7.74204 17.2486 7.72232L17.149 8.71736C17.3912 8.74157 17.4422 8.74895 17.4767 8.75928L17.7635 7.80128ZM18.806 8.95325C18.7 8.40519 18.2983 7.96136 17.7635 7.80128L17.4767 8.75928C17.655 8.81264 17.7889 8.96058 17.8242 9.14327L18.806 8.95325ZM18.8334 9.4735C18.8334 9.27534 18.8356 9.10616 18.806 8.95326L17.8242 9.14327C17.8311 9.17863 17.8334 9.23019 17.8334 9.4735H18.8334ZM18.8334 10.5265V9.4735H17.8334V10.5265H18.8334ZM18.806 11.0465C18.8356 10.8937 18.8334 10.7246 18.8334 10.5265H17.8334C17.8334 10.7697 17.8311 10.8213 17.8243 10.8566L18.806 11.0465ZM17.7634 12.1987C18.2983 12.0386 18.7 11.5947 18.806 11.0465L17.8243 10.8566C17.7889 11.0393 17.655 11.1873 17.4767 11.2407L17.7634 12.1987ZM17.2486 12.2776C17.4457 12.2579 17.6142 12.2433 17.7634 12.1987L17.4767 11.2407C17.4422 11.251 17.3911 11.2584 17.1491 11.2826L17.2486 12.2776ZM17.2969 12.2704L17.297 12.2704L17.1008 11.2898L17.1008 11.2898L17.2969 12.2704ZM16.6312 12.3589C16.639 12.3558 16.6749 12.344 16.7856 12.3284C16.8933 12.3132 17.037 12.2988 17.2486 12.2776L17.1491 11.2826C16.946 11.3029 16.7786 11.3195 16.6462 11.3382C16.5168 11.3564 16.3836 11.381 16.2604 11.4302L16.6312 12.3589ZM16.3571 13.0206C16.2461 12.7622 16.37 12.4632 16.6312 12.3589L16.2604 11.4302C15.4769 11.7429 15.1054 12.64 15.4382 13.4152L16.3571 13.0206ZM16.7361 13.5147C16.6015 13.3501 16.5101 13.2383 16.4447 13.1514C16.3774 13.0621 16.3604 13.0283 16.3571 13.0206L15.4382 13.4152C15.4905 13.537 15.5673 13.6487 15.6459 13.753C15.7263 13.8598 15.8329 13.9899 15.9622 14.1479L16.7361 13.5147ZM17.0442 13.9343C16.9704 13.7973 16.8615 13.6679 16.7361 13.5147L15.9622 14.1479C16.1162 14.3361 16.147 14.3774 16.1641 14.4091L17.0442 13.9343ZM16.9668 15.4864C17.2795 15.0238 17.3093 14.4258 17.0442 13.9343L16.1641 14.4091C16.2525 14.5729 16.2425 14.7722 16.1383 14.9264L16.9668 15.4864ZM16.6185 15.8733C16.7585 15.7333 16.8797 15.6153 16.9668 15.4864L16.1383 14.9264C16.1182 14.9563 16.0833 14.9943 15.9114 15.1662L16.6185 15.8733ZM15.8739 16.618L16.6185 15.8733L15.9114 15.1662L15.1667 15.9109L15.8739 16.618ZM15.4867 16.9665C15.6157 16.8793 15.7337 16.7581 15.8739 16.618L15.1667 15.9109C14.9947 16.0829 14.9567 16.1177 14.9268 16.1379L15.4867 16.9665ZM13.9349 17.0439C14.4263 17.3089 15.0241 17.279 15.4867 16.9665L14.9268 16.1379C14.7726 16.2421 14.5733 16.252 14.4096 16.1637L13.9349 17.0439ZM13.515 16.7356C13.6684 16.8611 13.7978 16.97 13.9349 17.0439L14.4096 16.1637C14.3779 16.1466 14.3365 16.1157 14.1482 15.9617L13.515 16.7356ZM13.5543 16.7647L13.5543 16.7647L14.109 15.9326L14.109 15.9326L13.5543 16.7647ZM13.5115 16.7327L13.5115 16.7328L14.1517 15.9645L14.1517 15.9645L13.5115 16.7327ZM13.0206 16.3564C13.0284 16.3597 13.0621 16.3767 13.1515 16.444C13.2385 16.5095 13.3503 16.6009 13.515 16.7356L14.1482 15.9617C13.9901 15.8323 13.86 15.7257 13.7531 15.6452C13.6487 15.5666 13.537 15.4898 13.4151 15.4374L13.0206 16.3564ZM12.3591 16.6304C12.4633 16.3693 12.7623 16.2455 13.0206 16.3564L13.4151 15.4374C12.6401 15.1048 11.7432 15.4763 11.4304 16.2595L12.3591 16.6304ZM12.2777 17.2483C12.2989 17.0366 12.3133 16.8928 12.3285 16.7849C12.3441 16.6741 12.356 16.6382 12.3591 16.6304L11.4304 16.2595C11.3812 16.3827 11.3565 16.5161 11.3383 16.6455C11.3196 16.778 11.303 16.9455 11.2826 17.1488L12.2777 17.2483ZM12.1987 17.7636C12.2434 17.6143 12.2579 17.4456 12.2777 17.2483L11.2826 17.1488C11.2584 17.3911 11.251 17.4422 11.2407 17.4767L12.1987 17.7636ZM11.0469 18.8059C11.5948 18.6998 12.0386 18.2983 12.1987 17.7636L11.2407 17.4767C11.1873 17.6549 11.0394 17.7888 10.8568 17.8242L11.0469 18.8059ZM10.5264 18.8333C10.7246 18.8333 10.8939 18.8356 11.0469 18.8059L10.8567 17.8242C10.8214 17.831 10.7698 17.8333 10.5264 17.8333V18.8333ZM9.47355 18.8333H10.5264V17.8333H9.47355V18.8333ZM8.95332 18.806C9.10623 18.8356 9.2754 18.8333 9.47355 18.8333V17.8333C9.23025 17.8333 9.17869 17.831 9.14333 17.8242L8.95332 18.806ZM7.80134 17.7634C7.96142 18.2982 8.40525 18.6999 8.95332 18.806L9.14333 17.8242C8.96064 17.7888 8.8127 17.6549 8.75934 17.4767L7.80134 17.7634ZM7.72238 17.2485C7.7421 17.4457 7.75668 17.6142 7.80134 17.7634L8.75934 17.4767C8.74901 17.4422 8.74163 17.3911 8.71742 17.149L7.72238 17.2485ZM7.64099 16.6307C7.64411 16.6385 7.65596 16.6744 7.67156 16.7852C7.68674 16.893 7.70121 17.0368 7.72238 17.2485L8.71742 17.149C8.69709 16.9457 8.68044 16.7783 8.66179 16.6458C8.64356 16.5163 8.61887 16.383 8.56967 16.2598L7.64099 16.6307ZM6.97944 16.3567C7.23778 16.2458 7.53673 16.3696 7.64099 16.6307L8.56967 16.2598C8.25687 15.4766 7.36004 15.1051 6.58502 15.4378L6.97944 16.3567ZM6.48503 16.736C6.64971 16.6013 6.7616 16.5098 6.84856 16.4443C6.93793 16.377 6.97171 16.36 6.97944 16.3567L6.58502 15.4378C6.46312 15.4901 6.35138 15.5669 6.24696 15.6455C6.14011 15.726 6.00991 15.8327 5.8518 15.962L6.48503 16.736ZM6.06507 17.0443C6.20216 16.9704 6.33167 16.8615 6.48504 16.736L5.8518 15.962C5.66348 16.1161 5.62214 16.147 5.59044 16.1641L6.06507 17.0443ZM4.51334 16.9669C4.97589 17.2794 5.57372 17.3092 6.06507 17.0443L5.59044 16.1641C5.42666 16.2524 5.22738 16.2425 5.0732 16.1383L4.51334 16.9669ZM4.12615 16.6183C4.26626 16.7585 4.38429 16.8797 4.51334 16.9669L5.0732 16.1383C5.04335 16.1181 5.0053 16.0833 4.83325 15.9112L4.12615 16.6183ZM4.14751 16.6385L4.14752 16.6385L4.81188 15.8911L4.81188 15.8911L4.14751 16.6385ZM3.38161 15.8738L4.12614 16.6183L4.83325 15.9112L4.08871 15.1667L3.38161 15.8738ZM3.3816 15.8738L3.38161 15.8738L4.08871 15.1667L4.08871 15.1667L3.3816 15.8738ZM3.03307 15.4866C3.12027 15.6157 3.24149 15.7337 3.3816 15.8738L4.08871 15.1667C3.91667 14.9947 3.88182 14.9566 3.86166 14.9268L3.03307 15.4866ZM2.95568 13.9349C2.69071 14.4262 2.72053 15.0241 3.03307 15.4866L3.86166 14.9268C3.75748 14.7726 3.74754 14.5733 3.83586 14.4095L2.95568 13.9349ZM3.26396 13.5149C3.13848 13.6683 3.0296 13.7978 2.95568 13.9349L3.83586 14.4095C3.85295 14.3778 3.88385 14.3365 4.03792 14.1482L3.26396 13.5149ZM3.64325 13.0205C3.63993 13.0283 3.6229 13.062 3.55559 13.1514C3.49011 13.2384 3.39869 13.3503 3.26396 13.5149L4.03792 14.1482C4.16728 13.9901 4.27392 13.8599 4.35439 13.753C4.43303 13.6486 4.50985 13.5369 4.56217 13.415L3.64325 13.0205ZM3.36922 12.359C3.63031 12.4632 3.75414 12.7622 3.64325 13.0205L4.56217 13.415C4.89484 12.6399 4.52335 11.7431 3.74008 11.4303L3.36922 12.359ZM2.75146 12.2776C2.96316 12.2988 3.10692 12.3132 3.2147 12.3284C3.32548 12.344 3.3614 12.3559 3.36922 12.359L3.74008 11.4303C3.6169 11.3811 3.48358 11.3564 3.35413 11.3382C3.22169 11.3195 3.05422 11.3029 2.85097 11.2826L2.75146 12.2776ZM2.23656 12.1986C2.38576 12.2433 2.5543 12.2579 2.75146 12.2776L2.85097 11.2826C2.60889 11.2584 2.55781 11.251 2.52331 11.2406L2.23656 12.1986ZM1.19401 11.0466C1.30008 11.5947 1.70175 12.0386 2.23656 12.1986L2.52331 11.2406C2.34504 11.1873 2.21115 11.0393 2.1758 10.8566L1.19401 11.0466ZM1.16669 10.5264C1.16669 10.7246 1.16442 10.8937 1.19401 11.0466L2.1758 10.8566C2.16895 10.8213 2.16669 10.7697 2.16669 10.5264H1.16669ZM1.16669 9.47358L1.16669 10.5264H2.16669L2.16669 9.47358H1.16669ZM1.19404 8.95315C1.16442 9.10611 1.16669 9.27535 1.16669 9.47358H2.16669C2.16669 9.23019 2.16895 9.17861 2.1758 9.14324L1.19404 8.95315ZM2.23644 7.80131C1.70173 7.96141 1.30013 8.40516 1.19404 8.95315L2.1758 9.14324C2.21117 8.96057 2.34503 8.81266 2.52327 8.75929L2.23644 7.80131ZM2.75156 7.72231C2.55432 7.74203 2.3857 7.75662 2.23644 7.80131L2.52327 8.75929C2.55779 8.74895 2.60888 8.74157 2.85107 8.71735L2.75156 7.72231ZM3.36959 7.64088C3.36177 7.64401 3.32583 7.65586 3.215 7.67147C3.10717 7.68665 2.96336 7.70113 2.75156 7.72231L2.85107 8.71735C3.05441 8.69701 3.22195 8.68036 3.35445 8.6617C3.48396 8.64346 3.61733 8.61876 3.74057 8.56953L3.36959 7.64088ZM3.64358 6.9794C3.75442 7.23771 3.63062 7.53661 3.36959 7.64088L3.74057 8.56952C4.52366 8.25669 4.89508 7.36001 4.56255 6.58508L3.64358 6.9794ZM3.26411 6.48476C3.3989 6.64951 3.49037 6.76146 3.55589 6.84846C3.62323 6.93787 3.64026 6.97167 3.64358 6.9794L4.56255 6.58507C4.51022 6.46312 4.43337 6.35133 4.35469 6.24686C4.27419 6.13996 4.16749 6.00971 4.03806 5.85152L3.26411 6.48476ZM2.95563 6.06453C3.02959 6.20171 3.13854 6.33129 3.26411 6.48476L4.03806 5.85152C3.88389 5.66308 3.85297 5.62172 3.83587 5.58999L2.95563 6.06453ZM3.03301 4.51307C2.7206 4.97556 2.69079 5.57326 2.95563 6.06453L3.83587 5.58999C3.74759 5.42623 3.75752 5.227 3.86166 5.07284L3.03301 4.51307ZM3.38174 4.12565C3.24154 4.26585 3.12025 4.38394 3.03301 4.51307L3.86166 5.07284C3.88184 5.04298 3.91671 5.0049 4.08885 4.83276L3.38174 4.12565ZM3.36365 4.14472L3.36365 4.14472L4.10694 4.81369L4.10695 4.81368L3.36365 4.14472ZM4.12618 3.38121L3.38175 4.12565L4.08885 4.83275L4.83329 4.08832L4.12618 3.38121ZM4.51338 3.03267C4.38432 3.11986 4.2663 3.24109 4.12618 3.38121L4.83329 4.08832C5.00533 3.91627 5.04339 3.88142 5.07323 3.86125L4.51338 3.03267ZM6.06511 2.95527C5.57376 2.69032 4.97592 2.72013 4.51338 3.03267L5.07323 3.86125C5.22742 3.75708 5.4267 3.74714 5.59048 3.83546L6.06511 2.95527ZM6.48514 3.26362C6.33173 3.1381 6.2022 3.0292 6.06511 2.95527L5.59048 3.83546C5.62218 3.85255 5.66354 3.88346 5.8519 4.03757L6.48514 3.26362ZM6.97941 3.64284C6.97169 3.63952 6.93793 3.6225 6.84857 3.5552C6.76164 3.48972 6.64977 3.39832 6.48514 3.26362L5.8519 4.03757C6.00997 4.16691 6.14013 4.27352 6.24694 4.35397C6.35133 4.4326 6.46302 4.50939 6.58486 4.56171L6.97941 3.64284ZM7.64106 3.36878C7.53681 3.62992 7.23779 3.75378 6.97941 3.64284L6.58486 4.56171C7.35998 4.89454 8.25704 4.52297 8.56979 3.73953L7.64106 3.36878ZM7.72239 2.7513C7.70123 2.9629 7.68677 3.10659 7.6716 3.21432C7.65601 3.32506 7.64417 3.36096 7.64106 3.36878L8.56979 3.73953C8.61894 3.61639 8.64362 3.48313 8.66183 3.35374C8.68047 3.22135 8.69711 3.05397 8.71743 2.8508L7.72239 2.7513ZM7.8013 2.23662C7.75667 2.38575 7.7421 2.55422 7.72239 2.7513L8.71743 2.8508C8.74163 2.60883 8.74901 2.55778 8.75933 2.52329L7.8013 2.23662ZM8.95346 1.19393C8.40528 1.29997 7.96136 1.70171 7.8013 2.23662L8.75933 2.52329C8.81268 2.34499 8.96065 2.21107 9.14338 2.17573L8.95346 1.19393ZM9.47343 1.16663C9.27538 1.16663 9.1063 1.16436 8.95346 1.19393L9.14338 2.17573C9.17872 2.16889 9.23026 2.16663 9.47343 2.16663V1.16663ZM10.5265 1.16663H9.47343V2.16663H10.5265V1.16663ZM11.0467 1.19395C10.8938 1.16436 10.7246 1.16663 10.5265 1.16663V2.16663C10.7698 2.16663 10.8213 2.16889 10.8567 2.17573L11.0467 1.19395ZM12.1987 2.2365C12.0386 1.70169 11.5948 1.30002 11.0467 1.19395L10.8567 2.17573C11.0394 2.21109 11.1873 2.34498 11.2407 2.52325L12.1987 2.2365ZM12.8334 9.99996C12.8334 11.5648 11.5648 12.8333 10 12.8333V13.8333C12.1171 13.8333 13.8334 12.1171 13.8334 9.99996H12.8334ZM10 7.16663C11.5648 7.16663 12.8334 8.43515 12.8334 9.99996H13.8334C13.8334 7.88287 12.1171 6.16663 10 6.16663V7.16663ZM7.16669 9.99996C7.16669 8.43515 8.43521 7.16663 10 7.16663V6.16663C7.88293 6.16663 6.16669 7.88287 6.16669 9.99996H7.16669ZM10 12.8333C8.43521 12.8333 7.16669 11.5648 7.16669 9.99996H6.16669C6.16669 12.1171 7.88293 13.8333 10 13.8333V12.8333Z" fill="white"/>
</svg>
