<svg width="24" height="22" viewBox="0 0 24 22" fill="none" xmlns="http://www.w3.org/2000/svg">
<path d="M17.53 6.90666C17.46 6.89777 17.39 6.89777 17.32 6.90666C15.77 6.86222 14.54 5.73333 14.54 4.34666C14.54 2.93333 15.83 1.77777 17.43 1.77777C19.02 1.77777 20.32 2.92444 20.32 4.34666C20.31 5.73333 19.08 6.86222 17.53 6.90666Z" fill="white"/>
<path d="M20.79 13.0667C19.67 13.7333 18.1 13.9822 16.65 13.8133C17.03 13.0844 17.23 12.2756 17.24 11.4222C17.24 10.5333 17.02 9.68889 16.6 8.95111C18.08 8.77334 19.65 9.02222 20.78 9.68889C22.36 10.6133 22.36 12.1333 20.79 13.0667Z" fill="white"/>
<path d="M6.44003 6.90666C6.51003 6.89777 6.58003 6.89777 6.65003 6.90666C8.20003 6.86222 9.43003 5.73333 9.43003 4.34666C9.43003 2.92444 8.14003 1.77777 6.54003 1.77777C4.95003 1.77777 3.66003 2.92444 3.66003 4.34666C3.66003 5.73333 4.89003 6.86222 6.44003 6.90666Z" fill="white"/>
<path d="M6.55 11.4222C6.55 12.2844 6.76 13.1022 7.14 13.84C5.73 13.9733 4.26 13.7067 3.18 13.0755C1.6 12.1422 1.6 10.6222 3.18 9.68888C4.25 9.04888 5.76 8.7911 7.18 8.93332C6.77 9.67999 6.55 10.5244 6.55 11.4222Z" fill="white"/>
<path d="M12.12 14.1067C12.04 14.0978 11.95 14.0978 11.86 14.1067C10.02 14.0533 8.55005 12.7111 8.55005 11.0578C8.56005 9.36889 10.09 8 12 8C13.9 8 15.44 9.36889 15.44 11.0578C15.43 12.7111 13.97 14.0533 12.12 14.1067Z" fill="white"/>
<path d="M8.87005 15.9467C7.36005 16.8444 7.36005 18.32 8.87005 19.2089C10.59 20.2311 13.41 20.2311 15.1301 19.2089C16.6401 18.3111 16.6401 16.8355 15.1301 15.9467C13.42 14.9244 10.6 14.9244 8.87005 15.9467Z" fill="white"/>
</svg>
