<svg width="20" height="20" viewBox="0 0 20 20" fill="none" xmlns="http://www.w3.org/2000/svg">
<path fill-rule="evenodd" clip-rule="evenodd" d="M8.10598 10.4798L7.35874 10.2307C5.00552 9.44631 3.82892 9.05411 3.82892 8.33335C3.82892 7.61259 5.00553 7.22039 7.35874 6.43598L12.8719 4.59826C14.5277 4.04633 15.3556 3.77036 15.7926 4.20738C16.2296 4.6444 15.9537 5.47229 15.4017 7.12808L13.564 12.6413L13.564 12.6413L13.564 12.6413C12.7796 14.9945 12.3874 16.1711 11.6666 16.1711C10.9459 16.1711 10.5537 14.9945 9.76927 12.6412L9.52019 11.894L13.2071 8.20712C13.5976 7.8166 13.5976 7.18343 13.2071 6.79291C12.8166 6.40238 12.1834 6.40238 11.7929 6.79291L8.10598 10.4798Z" fill="white"/>
</svg>
