<svg width="57" height="57" viewBox="0 0 57 57" fill="none" xmlns="http://www.w3.org/2000/svg">
<g filter="url(#filter0_d_14_993)">
<circle cx="28.5" cy="24.5" r="24.5" fill="#262626"/>
</g>
<path d="M29 27L28.6464 27.3536L29 27.7071L29.3536 27.3536L29 27ZM29.5 18C29.5 17.7239 29.2761 17.5 29 17.5C28.7239 17.5 28.5 17.7239 28.5 18L29.5 18ZM23.6464 22.3536L28.6464 27.3536L29.3536 26.6464L24.3536 21.6464L23.6464 22.3536ZM29.3536 27.3536L34.3536 22.3536L33.6464 21.6464L28.6464 26.6464L29.3536 27.3536ZM29.5 27L29.5 18L28.5 18L28.5 27L29.5 27Z" fill="#FFF1F1"/>
<path d="M22 29L22 30C22 31.1046 22.8954 32 24 32L34 32C35.1046 32 36 31.1046 36 30V29" stroke="#FFF1F1"/>
<defs>
<filter id="filter0_d_14_993" x="0" y="0" width="57" height="57" filterUnits="userSpaceOnUse" color-interpolation-filters="sRGB">
<feFlood flood-opacity="0" result="BackgroundImageFix"/>
<feColorMatrix in="SourceAlpha" type="matrix" values="0 0 0 0 0 0 0 0 0 0 0 0 0 0 0 0 0 0 127 0" result="hardAlpha"/>
<feOffset dy="4"/>
<feGaussianBlur stdDeviation="2"/>
<feComposite in2="hardAlpha" operator="out"/>
<feColorMatrix type="matrix" values="0 0 0 0 0 0 0 0 0 0 0 0 0 0 0 0 0 0 0.25 0"/>
<feBlend mode="normal" in2="BackgroundImageFix" result="effect1_dropShadow_14_993"/>
<feBlend mode="normal" in="SourceGraphic" in2="effect1_dropShadow_14_993" result="shape"/>
</filter>
</defs>
</svg>
