<svg width="254" height="171" viewBox="0 0 254 171" fill="none" xmlns="http://www.w3.org/2000/svg">
<g clip-path="url(#clip0_188_486)" filter="url(#filter0_d_188_486)">
<path d="M118.709 132.935C115.111 115.591 110.614 109.808 110.614 109.808L108.896 108.48L106.83 106.879L106.84 106.674L106.35 106.508L106.235 106.418L106.046 106.274L106.016 106.307L105.952 106.373L96.6025 103.204L84.7412 99.187L79.2486 92.069C78.3541 90.9097 77.2025 89.9727 75.8839 89.3315C74.5654 88.6903 73.1159 88.3622 71.6489 88.3731L54.1075 88.5025C51.7357 88.52 49.4563 89.4215 47.7173 91.0297L36.1877 101.693L18.2222 110.247L18.1919 110.217L18.0032 110.352L15.2274 111.675L15.342 112.269L13.6239 113.505C13.6239 113.505 9.12665 118.886 5.52884 135.025C4.6136 139.131 4.16308 147.94 4.00047 158.795C3.9923 159.344 4.09371 159.89 4.29878 160.399C4.50385 160.909 4.80851 161.373 5.19503 161.764C5.58155 162.155 6.04222 162.466 6.55027 162.678C7.05831 162.89 7.60359 163 8.1544 163H104.111L116.088 163C116.638 163 117.183 162.89 117.691 162.679C118.199 162.467 118.659 162.156 119.046 161.765C119.432 161.375 119.737 160.911 119.942 160.402C120.148 159.893 120.25 159.348 120.242 158.799C120.083 146.988 119.633 137.388 118.709 132.935Z" fill="#273B4A"/>
<path d="M131.021 15.1258C127.288 15.1258 123.707 16.6044 121.067 19.2365C118.428 21.8685 116.945 25.4383 116.945 29.1605C116.945 32.8827 118.428 36.4525 121.067 39.0845C123.707 41.7165 127.288 43.1952 131.021 43.1952H235.924C239.657 43.1952 243.237 41.7165 245.877 39.0845C248.517 36.4525 250 32.8827 250 29.1605C250 25.4383 248.517 21.8685 245.877 19.2365C243.237 16.6044 239.657 15.1258 235.924 15.1258H131.021Z" fill="#E5E5E5"/>
<path d="M131.021 17.9661C128.043 17.9661 125.187 19.1455 123.082 21.2449C120.976 23.3442 119.793 26.1916 119.793 29.1605C119.793 32.1294 120.976 34.9767 123.082 37.0761C125.187 39.1754 128.043 40.3548 131.021 40.3548H235.924C238.901 40.3548 241.757 39.1754 243.863 37.0761C245.968 34.9767 247.151 32.1294 247.151 29.1605C247.151 26.1916 245.968 23.3442 243.863 21.2449C241.757 19.1455 238.901 17.9661 235.924 17.9661H131.021Z" fill="white"/>
<path d="M65.6329 81.8026C78.3249 81.8026 88.6138 71.5442 88.6138 58.8898C88.6138 46.2354 78.3249 35.9769 65.6329 35.9769C52.9409 35.9769 42.652 46.2354 42.652 58.8898C42.652 71.5442 52.9409 81.8026 65.6329 81.8026Z" fill="#9E616A"/>
<path d="M59.754 80.6807C59.6558 80.4652 59.5579 80.2489 59.4603 80.0319C59.4979 80.0331 59.5351 80.0385 59.5727 80.0395L59.754 80.6807Z" fill="#2F2E41"/>
<path d="M42.0129 37.0189C43.1753 36.0944 44.5337 35.2438 46.0198 35.2916C47.5058 35.3394 49.0128 36.6776 48.7049 38.1279C51.4344 33.3093 55.7791 29.6032 60.9762 27.6602C66.1733 25.7172 71.8908 25.6614 77.125 27.5026C80.8184 28.8019 84.4404 31.4011 85.2889 35.2133C85.5067 36.1919 85.5534 37.2649 86.1663 38.0596C86.939 39.0615 88.4174 39.2882 89.6347 38.9357C89.6469 38.9322 89.659 38.9286 89.6712 38.925C89.8768 38.855 90.0988 38.8481 90.3084 38.9052C90.518 38.9624 90.7056 39.0809 90.847 39.2455C90.9883 39.4101 91.0768 39.6132 91.1011 39.8285C91.1253 40.0438 91.0843 40.2615 90.9832 40.4532L89.9381 42.3965C91.2555 42.6893 92.6243 42.6602 93.928 42.3119C94.1445 42.2552 94.3734 42.2668 94.5831 42.345C94.7928 42.4231 94.9731 42.5641 95.0993 42.7485C95.2255 42.9329 95.2914 43.1517 95.2879 43.3749C95.2845 43.5981 95.2118 43.8147 95.08 43.9951C91.6341 48.7122 85.877 51.7582 80.0021 51.7224C75.8266 51.697 71.6081 50.2622 67.5444 51.2196C65.9723 51.59 64.5033 52.3066 63.2452 53.3168C61.9871 54.327 60.9718 55.6053 60.2738 57.0578C59.5758 58.5103 59.2128 60.1002 59.2115 61.7108C59.2102 63.3214 59.5705 64.9118 60.2661 66.3655C59.0177 65.004 56.6044 65.3264 55.3274 66.6612C54.0504 67.9961 53.7198 69.9884 53.8485 71.8287C54.0452 74.6432 55.1513 77.2954 56.3173 79.8766C46.5415 79.5698 37.2951 72.7325 34.1828 63.4849C31.0574 54.1986 34.3329 43.1273 42.0129 37.0189Z" fill="#2F2E41"/>
<path opacity="0.2" d="M26.6192 127.699L33.0648 162.664L36.9323 163L26.6192 127.699Z" fill="black"/>
<path opacity="0.2" d="M97.619 125.062L91.1734 162.639L87.3059 163L97.619 125.062Z" fill="black"/>
<path d="M47.5106 25.2513C46.2747 25.7658 44.9851 25.202 44.4443 23.9106C43.8952 22.5995 44.4081 21.2686 45.6637 20.7459C46.9195 20.223 48.1861 20.7883 48.744 22.1205C49.2936 23.4328 48.7864 24.7202 47.5106 25.2513ZM45.1432 18.1652L44.1605 18.5743C43.915 18.6753 43.6405 18.6808 43.3912 18.5896C43.1419 18.4984 42.9359 18.3173 42.8142 18.082L42.7656 17.9872C41.7083 16.086 41.5872 13.7754 42.4077 11.1231C43.1677 8.74389 43.4834 7.0706 42.8485 5.55469C42.1145 3.80201 40.5471 3.25298 38.5482 4.04831C37.773 4.37106 37.5263 4.36592 36.9162 4.96933C36.7835 5.10218 36.6254 5.20703 36.4511 5.27762C36.2769 5.34821 36.0902 5.38309 35.9022 5.38019C35.7204 5.37806 35.5409 5.33945 35.3744 5.26666C35.2079 5.19388 35.0578 5.08841 34.9331 4.95655C34.6928 4.70244 34.5582 4.36687 34.5564 4.01763C34.5547 3.66839 34.6859 3.33149 34.9236 3.07497C35.949 2.00471 37.1858 1.15801 38.556 0.588279C42.8506 -1.19969 45.0125 1.43999 46.0019 3.80226C46.9695 6.11283 46.4252 8.25666 45.5506 11.0331C44.8176 13.3402 44.8603 15.0497 45.6929 16.7495C45.753 16.878 45.7865 17.0173 45.7912 17.159C45.796 17.3007 45.772 17.4419 45.7206 17.5742C45.6693 17.7064 45.5917 17.8269 45.4924 17.9285C45.3932 18.03 45.2744 18.1106 45.1432 18.1652Z" fill="#6C63FF"/>
<path d="M154.193 35.8541H133.321C133.255 35.8545 133.189 35.8419 133.127 35.8169C133.066 35.7919 133.01 35.755 132.963 35.7085C132.916 35.6619 132.879 35.6065 132.853 35.5454C132.828 35.4844 132.815 35.4189 132.815 35.3528C132.815 35.2867 132.828 35.2212 132.853 35.1602C132.879 35.0992 132.916 35.0438 132.963 34.9972C133.01 34.9506 133.066 34.9137 133.127 34.8887C133.189 34.8638 133.255 34.8511 133.321 34.8516H154.193C154.325 34.8525 154.452 34.9057 154.546 34.9996C154.639 35.0935 154.692 35.2205 154.692 35.3528C154.692 35.4852 154.639 35.6121 154.546 35.706C154.452 35.7999 154.325 35.8532 154.193 35.8541Z" fill="#6C63FF"/>
<path d="M180.67 36.0212H159.798C159.732 36.0216 159.666 36.009 159.604 35.984C159.543 35.959 159.487 35.9222 159.44 35.8756C159.393 35.829 159.356 35.7736 159.33 35.7125C159.305 35.6515 159.292 35.586 159.292 35.5199C159.292 35.4538 159.305 35.3884 159.33 35.3273C159.356 35.2663 159.393 35.2109 159.44 35.1643C159.487 35.1177 159.543 35.0808 159.604 35.0559C159.666 35.0309 159.732 35.0182 159.798 35.0187H180.67C180.736 35.0182 180.802 35.0309 180.863 35.0559C180.924 35.0808 180.98 35.1177 181.027 35.1643C181.074 35.2109 181.112 35.2663 181.137 35.3273C181.163 35.3884 181.176 35.4538 181.176 35.5199C181.176 35.586 181.163 35.6515 181.137 35.7125C181.112 35.7736 181.074 35.829 181.027 35.8756C180.98 35.9222 180.924 35.959 180.863 35.984C180.802 36.009 180.736 36.0216 180.67 36.0212Z" fill="#6C63FF"/>
<path d="M207.147 36.1882H186.275C186.142 36.1873 186.015 36.1341 185.922 36.0402C185.828 35.9463 185.776 35.8193 185.776 35.687C185.776 35.5546 185.828 35.4276 185.922 35.3337C186.015 35.2398 186.142 35.1866 186.275 35.1857H207.147C207.213 35.1853 207.279 35.1979 207.34 35.2229C207.401 35.2479 207.457 35.2847 207.504 35.3313C207.551 35.3779 207.589 35.4333 207.614 35.4944C207.64 35.5554 207.653 35.6209 207.653 35.687C207.653 35.7531 207.64 35.8186 207.614 35.8796C207.589 35.9406 207.551 35.996 207.504 36.0426C207.457 36.0892 207.401 36.1261 207.34 36.151C207.279 36.176 207.213 36.1887 207.147 36.1882Z" fill="#6C63FF"/>
<path d="M233.624 36.3553H212.752C212.619 36.3544 212.492 36.3012 212.399 36.2073C212.305 36.1134 212.253 35.9864 212.253 35.8541C212.253 35.7217 212.305 35.5948 212.399 35.5008C212.492 35.4069 212.619 35.3537 212.752 35.3528H233.624C233.756 35.3537 233.883 35.4069 233.977 35.5008C234.071 35.5948 234.123 35.7217 234.123 35.8541C234.123 35.9864 234.071 36.1134 233.977 36.2073C233.883 36.3012 233.756 36.3544 233.624 36.3553Z" fill="#6C63FF"/>
<path d="M143.711 31.2411C145.853 31.2411 147.59 29.5095 147.59 27.3734C147.59 25.2374 145.853 23.5057 143.711 23.5057C141.568 23.5057 139.832 25.2374 139.832 27.3734C139.832 29.5095 141.568 31.2411 143.711 31.2411Z" fill="#6C63FF"/>
<path d="M170.348 31.2411C172.49 31.2411 174.227 29.5095 174.227 27.3734C174.227 25.2374 172.49 23.5057 170.348 23.5057C168.205 23.5057 166.469 25.2374 166.469 27.3734C166.469 29.5095 168.205 31.2411 170.348 31.2411Z" fill="#6C63FF"/>
<path d="M196.985 31.2411C199.127 31.2411 200.864 29.5095 200.864 27.3734C200.864 25.2374 199.127 23.5057 196.985 23.5057C194.842 23.5057 193.106 25.2374 193.106 27.3734C193.106 29.5095 194.842 31.2411 196.985 31.2411Z" fill="#6C63FF"/>
<path d="M223.622 31.2411C225.764 31.2411 227.501 29.5095 227.501 27.3734C227.501 25.2374 225.764 23.5057 223.622 23.5057C221.479 23.5057 219.742 25.2374 219.742 27.3734C219.742 29.5095 221.479 31.2411 223.622 31.2411Z" fill="#6C63FF"/>
</g>
<defs>
<filter id="filter0_d_188_486" x="0" y="0" width="254" height="171" filterUnits="userSpaceOnUse" color-interpolation-filters="sRGB">
<feFlood flood-opacity="0" result="BackgroundImageFix"/>
<feColorMatrix in="SourceAlpha" type="matrix" values="0 0 0 0 0 0 0 0 0 0 0 0 0 0 0 0 0 0 127 0" result="hardAlpha"/>
<feOffset dy="4"/>
<feGaussianBlur stdDeviation="2"/>
<feComposite in2="hardAlpha" operator="out"/>
<feColorMatrix type="matrix" values="0 0 0 0 0 0 0 0 0 0 0 0 0 0 0 0 0 0 0.25 0"/>
<feBlend mode="normal" in2="BackgroundImageFix" result="effect1_dropShadow_188_486"/>
<feBlend mode="normal" in="SourceGraphic" in2="effect1_dropShadow_188_486" result="shape"/>
</filter>
<clipPath id="clip0_188_486">
<rect width="246" height="163" fill="white" transform="translate(4)"/>
</clipPath>
</defs>
</svg>
