<svg width="465" height="278" viewBox="0 0 465 278" fill="none" xmlns="http://www.w3.org/2000/svg">
<g clip-path="url(#clip0_188_695)">
<path d="M356.015 274.856C350.062 269.826 346.446 261.879 347.394 254.143C348.342 246.408 354.216 239.296 361.835 237.653C369.454 236.01 378.139 240.558 380.453 248C381.726 233.651 383.194 218.702 390.823 206.482C397.731 195.418 409.695 187.501 422.661 186.085C435.628 184.669 449.28 190.018 457.367 200.252C465.453 210.486 467.434 225.365 461.77 237.114C457.597 245.77 449.911 252.211 441.857 257.452C415.832 274.243 384.618 281.072 353.959 276.681L356.015 274.856Z" fill="#F2F2F2"/>
<path d="M444.544 190.314C433.845 199.029 424.03 208.775 415.241 219.412C401.485 236.003 390.354 254.604 382.235 274.567C381.641 276.023 384.006 276.657 384.593 275.217C397.877 242.773 419.084 214.176 446.274 192.044C447.495 191.05 445.755 189.328 444.544 190.314Z" fill="white"/>
<path d="M149.691 273.489C157.868 266.58 162.834 255.666 161.532 245.04C160.23 234.415 152.162 224.647 141.698 222.391C131.233 220.135 119.304 226.38 116.126 236.603C114.376 216.895 112.361 196.361 101.883 179.578C92.3948 164.381 75.9619 153.507 58.1524 151.562C40.3428 149.617 21.5916 156.964 10.4844 171.021C-0.622724 185.077 -3.34227 205.513 4.4369 221.651C10.1675 233.539 20.7254 242.387 31.7874 249.585C67.0791 272.548 110.858 282.126 152.515 275.995" fill="#F2F2F2"/>
<path d="M28.096 157.371C42.7911 169.34 56.2722 182.727 68.3446 197.337C80.4188 211.933 91.0488 227.665 100.085 244.313C105.136 253.651 109.674 263.259 113.678 273.092C114.494 275.092 111.246 275.963 110.438 273.985C103.347 256.649 94.5735 240.049 84.2439 224.425C73.9645 208.857 62.1991 194.323 49.113 181.026C41.7115 173.51 33.9023 166.406 25.7207 159.747C24.0437 158.381 26.4328 156.017 28.096 157.371Z" fill="white"/>
<path d="M333.784 277.391H138.698V77.2313C138.698 34.6458 173.345 0 215.931 0H256.552C299.138 0 333.784 34.6458 333.784 77.2313V277.391Z" fill="#F2F2F2"/>
<path d="M293.164 277.391H138.698V77.2313C138.656 60.9135 143.823 45.0081 153.448 31.8309C153.802 31.3473 154.156 30.87 154.521 30.3979C159.177 24.2921 164.717 18.9148 170.959 14.4436C171.311 14.187 171.665 13.9349 172.025 13.6828C177.248 10.0684 182.898 7.11368 188.846 4.88593C189.199 4.75205 189.559 4.6179 189.919 4.48924C195.298 2.56945 200.875 1.25441 206.545 0.568387C206.897 0.520365 207.258 0.482787 207.619 0.445208C213.145 -0.145636 218.718 -0.145636 224.244 0.445208C224.604 0.482787 224.965 0.52036 225.321 0.568901C230.99 1.25497 236.565 2.56985 241.943 4.48926C242.303 4.61793 242.663 4.75206 243.017 4.8862C248.892 7.08586 254.475 9.99648 259.643 13.5531C260.002 13.7997 260.361 14.0518 260.715 14.3039C264.214 16.8014 267.5 19.5837 270.541 22.6225C272.979 25.0599 275.251 27.6581 277.342 30.3995C277.706 30.87 278.06 31.3473 278.414 31.8301C288.039 45.0075 293.206 60.9132 293.164 77.2313V277.391Z" fill="#CCCCCC"/>
<path d="M280.603 187.867C285.326 187.867 289.155 184.039 289.155 179.316C289.155 174.593 285.326 170.764 280.603 170.764C275.88 170.764 272.052 174.593 272.052 179.316C272.052 184.039 275.88 187.867 280.603 187.867Z" fill="#6C63FF"/>
<path d="M317.803 271.396H311.25L308.133 246.122L317.804 246.123L317.803 271.396Z" fill="#FFB8B8"/>
<path d="M306.57 269.524H319.207V277.481H298.613C298.613 276.436 298.819 275.401 299.218 274.436C299.618 273.47 300.204 272.593 300.943 271.854C301.682 271.116 302.559 270.529 303.525 270.13C304.49 269.73 305.525 269.524 306.57 269.524Z" fill="#2F2E41"/>
<path d="M350.406 271.396H343.854L340.736 246.122L350.408 246.123L350.406 271.396Z" fill="#FFB8B8"/>
<path d="M339.173 269.524H351.81V277.481H331.216C331.216 276.436 331.422 275.401 331.822 274.436C332.222 273.47 332.808 272.593 333.547 271.854C334.286 271.116 335.163 270.529 336.128 270.13C337.094 269.73 338.128 269.524 339.173 269.524Z" fill="#2F2E41"/>
<path d="M284.931 181.01C284.46 180.315 284.147 179.526 284.013 178.697C283.88 177.868 283.93 177.02 284.16 176.213C284.39 175.406 284.794 174.659 285.344 174.024C285.893 173.39 286.576 172.884 287.342 172.542L309.617 111.149L320.578 117.13L295.145 175.8C295.634 177.126 295.62 178.585 295.105 179.901C294.591 181.217 293.611 182.299 292.352 182.941C291.093 183.583 289.642 183.741 288.275 183.385C286.907 183.029 285.717 182.184 284.931 181.01Z" fill="#FFB8B8"/>
<path d="M347.059 192.546C346.331 192.128 345.703 191.556 345.22 190.87C344.737 190.183 344.41 189.399 344.263 188.573C344.115 187.747 344.151 186.898 344.367 186.087C344.583 185.276 344.974 184.522 345.513 183.878L338.612 118.935L351.086 119.505L353.954 183.385C354.975 184.362 355.602 185.68 355.717 187.089C355.831 188.497 355.425 189.899 354.575 191.028C353.725 192.157 352.491 192.935 351.106 193.215C349.72 193.495 348.281 193.257 347.059 192.546Z" fill="#FFB8B8"/>
<path d="M327.16 99.7773C334.41 99.7773 340.288 93.9001 340.288 86.6501C340.288 79.4001 334.41 73.5229 327.16 73.5229C319.91 73.5229 314.033 79.4001 314.033 86.6501C314.033 93.9001 319.91 99.7773 327.16 99.7773Z" fill="#FFB8B8"/>
<path d="M346.975 177.776H307.398L307.446 177.468C307.517 177.007 314.5 131.268 309.35 116.305C308.833 114.834 308.878 113.225 309.477 111.786C310.076 110.347 311.186 109.18 312.594 108.51C319.954 105.044 334.084 100.776 346.01 111.134C347.765 112.683 349.135 114.62 350.013 116.79C350.89 118.96 351.251 121.305 351.066 123.639L346.975 177.776Z" fill="#6C63FF"/>
<path d="M315 138.028L297.182 134.413L305.534 114.622C306.034 112.705 307.273 111.064 308.981 110.06C310.689 109.056 312.725 108.77 314.643 109.266C316.561 109.761 318.205 110.996 319.213 112.702C320.221 114.407 320.512 116.442 320.021 118.362L315 138.028Z" fill="#6C63FF"/>
<path d="M337.82 144.74L336.749 120.185C335.936 115.569 338.579 111.206 342.643 110.493C346.708 109.782 350.677 112.983 351.493 117.633L355.519 140.577L337.82 144.74Z" fill="#6C63FF"/>
<path d="M345.659 174.836C352.027 199.089 352.722 229.924 351.003 263.559L342.452 262.49L326.952 198.353L318.4 263.559L308.779 263.024C305.905 227.733 303.107 197.436 307.71 177.508L345.659 174.836Z" fill="#2F2E41"/>
<path d="M335.81 96.7952C333.361 99.4038 328.813 98.0034 328.494 94.4397C328.468 94.163 328.47 93.8845 328.499 93.6082C328.664 92.0296 329.576 90.5964 329.357 88.9296C329.308 88.5148 329.153 88.1195 328.908 87.7811C326.957 85.1679 322.376 88.9499 320.534 86.5843C319.404 85.1337 320.732 82.8498 319.865 81.2285C318.722 79.0887 315.334 80.1443 313.209 78.9724C310.845 77.6686 310.987 74.0418 312.543 71.8358C314.44 69.1455 317.768 67.7099 321.053 67.503C324.339 67.2961 327.602 68.1844 330.67 69.3798C334.155 70.7381 337.612 72.6153 339.756 75.6799C342.365 79.4069 342.616 84.4175 341.311 88.7754C340.518 91.4265 337.81 94.6649 335.81 96.7952Z" fill="#2F2E41"/>
<path d="M448.956 277.735H54.3504C54.1819 277.735 54.0205 277.668 53.9016 277.548C53.7826 277.429 53.7158 277.267 53.7158 277.099C53.7158 276.931 53.7826 276.769 53.9016 276.65C54.0205 276.53 54.1819 276.463 54.3504 276.463H448.956C449.124 276.463 449.286 276.53 449.405 276.65C449.524 276.769 449.59 276.931 449.59 277.099C449.59 277.267 449.524 277.429 449.405 277.548C449.286 277.668 449.124 277.735 448.956 277.735Z" fill="#3F3D56"/>
<path d="M250.672 219.401H181.19C180.275 219.406 179.395 219.048 178.744 218.405C178.092 217.762 177.723 216.887 177.716 215.972V60.8846C177.723 59.9696 178.092 59.0947 178.744 58.4519C179.395 57.8091 180.275 57.4509 181.19 57.4558H250.672C251.588 57.4509 252.467 57.8091 253.119 58.4519C253.77 59.0947 254.14 59.9696 254.147 60.8846V215.972C254.14 216.887 253.77 217.762 253.119 218.405C252.467 219.048 251.588 219.406 250.672 219.401Z" fill="white"/>
<path d="M254.147 107.637H177.716V108.706H254.147V107.637Z" fill="#CCCCCC"/>
<path d="M254.414 168.626H177.983V169.695H254.414V168.626Z" fill="#CCCCCC"/>
<path d="M202.836 57.4559H201.767V219.936H202.836V57.4559Z" fill="#CCCCCC"/>
<path d="M229.56 57.4559H228.491V219.936H229.56V57.4559Z" fill="#CCCCCC"/>
</g>
<defs>
<clipPath id="clip0_188_695">
<rect width="465" height="278" fill="white"/>
</clipPath>
</defs>
</svg>
